<?xml version="1.0" encoding="utf-8" standalone="no"?>
<!DOCTYPE svg PUBLIC "-//W3C//DTD SVG 1.1//EN"
  "http://www.w3.org/Graphics/SVG/1.1/DTD/svg11.dtd">
<!-- Created with matplotlib (https://matplotlib.org/) -->
<svg height="288pt" version="1.1" viewBox="0 0 432 288" width="432pt" xmlns="http://www.w3.org/2000/svg" xmlns:xlink="http://www.w3.org/1999/xlink">
 <defs>
  <style type="text/css">
*{stroke-linecap:butt;stroke-linejoin:round;}
  </style>
 </defs>
 <g id="figure_1">
  <g id="patch_1">
   <path d="M 0 288 
L 432 288 
L 432 0 
L 0 0 
z
" style="fill:#ffffff;"/>
  </g>
  <g id="axes_1">
   <g id="patch_2">
    <path d="M 54 252 
L 388.8 252 
L 388.8 34.56 
L 54 34.56 
z
" style="fill:#ffffff;"/>
   </g>
   <g id="matplotlib.axis_1">
    <g id="xtick_1">
     <g id="line2d_1">
      <defs>
       <path d="M 0 0 
L 0 7 
" id="m0910b916e4" style="stroke:#262626;stroke-width:2;"/>
      </defs>
      <g>
       <use style="fill:#262626;stroke:#262626;stroke-width:2;" x="69.218182" xlink:href="#m0910b916e4" y="252"/>
      </g>
     </g>
     <g id="text_1">
      <!-- -12 -->
      <defs>
       <path d="M 3.171875 21.484375 
L 3.171875 30.328125 
L 30.171875 30.328125 
L 30.171875 21.484375 
z
" id="ArialMT-45"/>
       <path d="M 37.25 0 
L 28.46875 0 
L 28.46875 56 
Q 25.296875 52.984375 20.140625 49.953125 
Q 14.984375 46.921875 10.890625 45.40625 
L 10.890625 53.90625 
Q 18.265625 57.375 23.78125 62.296875 
Q 29.296875 67.234375 31.59375 71.875 
L 37.25 71.875 
z
" id="ArialMT-49"/>
       <path d="M 50.34375 8.453125 
L 50.34375 0 
L 3.03125 0 
Q 2.9375 3.171875 4.046875 6.109375 
Q 5.859375 10.9375 9.828125 15.625 
Q 13.8125 20.3125 21.34375 26.46875 
Q 33.015625 36.03125 37.109375 41.625 
Q 41.21875 47.21875 41.21875 52.203125 
Q 41.21875 57.421875 37.46875 61 
Q 33.734375 64.59375 27.734375 64.59375 
Q 21.390625 64.59375 17.578125 60.78125 
Q 13.765625 56.984375 13.71875 50.25 
L 4.6875 51.171875 
Q 5.609375 61.28125 11.65625 66.578125 
Q 17.71875 71.875 27.9375 71.875 
Q 38.234375 71.875 44.234375 66.15625 
Q 50.25 60.453125 50.25 52 
Q 50.25 47.703125 48.484375 43.546875 
Q 46.734375 39.40625 42.65625 34.8125 
Q 38.578125 30.21875 29.109375 22.21875 
Q 21.1875 15.578125 18.9375 13.203125 
Q 16.703125 10.84375 15.234375 8.453125 
z
" id="ArialMT-50"/>
      </defs>
      <g style="fill:#262626;" transform="translate(54.766619 276.815625)scale(0.2 -0.2)">
       <use xlink:href="#ArialMT-45"/>
       <use x="33.300781" xlink:href="#ArialMT-49"/>
       <use x="88.916016" xlink:href="#ArialMT-50"/>
      </g>
     </g>
    </g>
    <g id="xtick_2">
     <g id="line2d_2">
      <g>
       <use style="fill:#262626;stroke:#262626;stroke-width:2;" x="94.581818" xlink:href="#m0910b916e4" y="252"/>
      </g>
     </g>
     <g id="text_2">
      <!-- -10 -->
      <defs>
       <path d="M 4.15625 35.296875 
Q 4.15625 48 6.765625 55.734375 
Q 9.375 63.484375 14.515625 67.671875 
Q 19.671875 71.875 27.484375 71.875 
Q 33.25 71.875 37.59375 69.546875 
Q 41.9375 67.234375 44.765625 62.859375 
Q 47.609375 58.5 49.21875 52.21875 
Q 50.828125 45.953125 50.828125 35.296875 
Q 50.828125 22.703125 48.234375 14.96875 
Q 45.65625 7.234375 40.5 3 
Q 35.359375 -1.21875 27.484375 -1.21875 
Q 17.140625 -1.21875 11.234375 6.203125 
Q 4.15625 15.140625 4.15625 35.296875 
z
M 13.1875 35.296875 
Q 13.1875 17.671875 17.3125 11.828125 
Q 21.4375 6 27.484375 6 
Q 33.546875 6 37.671875 11.859375 
Q 41.796875 17.71875 41.796875 35.296875 
Q 41.796875 52.984375 37.671875 58.78125 
Q 33.546875 64.59375 27.390625 64.59375 
Q 21.34375 64.59375 17.71875 59.46875 
Q 13.1875 52.9375 13.1875 35.296875 
z
" id="ArialMT-48"/>
      </defs>
      <g style="fill:#262626;" transform="translate(80.130256 276.815625)scale(0.2 -0.2)">
       <use xlink:href="#ArialMT-45"/>
       <use x="33.300781" xlink:href="#ArialMT-49"/>
       <use x="88.916016" xlink:href="#ArialMT-48"/>
      </g>
     </g>
    </g>
    <g id="xtick_3">
     <g id="line2d_3">
      <g>
       <use style="fill:#262626;stroke:#262626;stroke-width:2;" x="119.945455" xlink:href="#m0910b916e4" y="252"/>
      </g>
     </g>
     <g id="text_3">
      <!-- -8 -->
      <defs>
       <path d="M 17.671875 38.8125 
Q 12.203125 40.828125 9.5625 44.53125 
Q 6.9375 48.25 6.9375 53.421875 
Q 6.9375 61.234375 12.546875 66.546875 
Q 18.171875 71.875 27.484375 71.875 
Q 36.859375 71.875 42.578125 66.421875 
Q 48.296875 60.984375 48.296875 53.171875 
Q 48.296875 48.1875 45.671875 44.5 
Q 43.0625 40.828125 37.75 38.8125 
Q 44.34375 36.671875 47.78125 31.875 
Q 51.21875 27.09375 51.21875 20.453125 
Q 51.21875 11.28125 44.71875 5.03125 
Q 38.234375 -1.21875 27.640625 -1.21875 
Q 17.046875 -1.21875 10.546875 5.046875 
Q 4.046875 11.328125 4.046875 20.703125 
Q 4.046875 27.6875 7.59375 32.390625 
Q 11.140625 37.109375 17.671875 38.8125 
z
M 15.921875 53.71875 
Q 15.921875 48.640625 19.1875 45.40625 
Q 22.46875 42.1875 27.6875 42.1875 
Q 32.765625 42.1875 36.015625 45.375 
Q 39.265625 48.578125 39.265625 53.21875 
Q 39.265625 58.0625 35.90625 61.359375 
Q 32.5625 64.65625 27.59375 64.65625 
Q 22.5625 64.65625 19.234375 61.421875 
Q 15.921875 58.203125 15.921875 53.71875 
z
M 13.09375 20.65625 
Q 13.09375 16.890625 14.875 13.375 
Q 16.65625 9.859375 20.171875 7.921875 
Q 23.6875 6 27.734375 6 
Q 34.03125 6 38.125 10.046875 
Q 42.234375 14.109375 42.234375 20.359375 
Q 42.234375 26.703125 38.015625 30.859375 
Q 33.796875 35.015625 27.4375 35.015625 
Q 21.234375 35.015625 17.15625 30.90625 
Q 13.09375 26.8125 13.09375 20.65625 
z
" id="ArialMT-56"/>
      </defs>
      <g style="fill:#262626;" transform="translate(111.05483 276.815625)scale(0.2 -0.2)">
       <use xlink:href="#ArialMT-45"/>
       <use x="33.300781" xlink:href="#ArialMT-56"/>
      </g>
     </g>
    </g>
    <g id="xtick_4">
     <g id="line2d_4">
      <g>
       <use style="fill:#262626;stroke:#262626;stroke-width:2;" x="145.309091" xlink:href="#m0910b916e4" y="252"/>
      </g>
     </g>
     <g id="text_4">
      <!-- -6 -->
      <defs>
       <path d="M 49.75 54.046875 
L 41.015625 53.375 
Q 39.84375 58.546875 37.703125 60.890625 
Q 34.125 64.65625 28.90625 64.65625 
Q 24.703125 64.65625 21.53125 62.3125 
Q 17.390625 59.28125 14.984375 53.46875 
Q 12.59375 47.65625 12.5 36.921875 
Q 15.671875 41.75 20.265625 44.09375 
Q 24.859375 46.4375 29.890625 46.4375 
Q 38.671875 46.4375 44.84375 39.96875 
Q 51.03125 33.5 51.03125 23.25 
Q 51.03125 16.5 48.125 10.71875 
Q 45.21875 4.9375 40.140625 1.859375 
Q 35.0625 -1.21875 28.609375 -1.21875 
Q 17.625 -1.21875 10.6875 6.859375 
Q 3.765625 14.9375 3.765625 33.5 
Q 3.765625 54.25 11.421875 63.671875 
Q 18.109375 71.875 29.4375 71.875 
Q 37.890625 71.875 43.28125 67.140625 
Q 48.6875 62.40625 49.75 54.046875 
z
M 13.875 23.1875 
Q 13.875 18.65625 15.796875 14.5 
Q 17.71875 10.359375 21.1875 8.171875 
Q 24.65625 6 28.46875 6 
Q 34.03125 6 38.03125 10.484375 
Q 42.046875 14.984375 42.046875 22.703125 
Q 42.046875 30.125 38.078125 34.390625 
Q 34.125 38.671875 28.125 38.671875 
Q 22.171875 38.671875 18.015625 34.390625 
Q 13.875 30.125 13.875 23.1875 
z
" id="ArialMT-54"/>
      </defs>
      <g style="fill:#262626;" transform="translate(136.418466 276.815625)scale(0.2 -0.2)">
       <use xlink:href="#ArialMT-45"/>
       <use x="33.300781" xlink:href="#ArialMT-54"/>
      </g>
     </g>
    </g>
    <g id="xtick_5">
     <g id="line2d_5">
      <g>
       <use style="fill:#262626;stroke:#262626;stroke-width:2;" x="170.672727" xlink:href="#m0910b916e4" y="252"/>
      </g>
     </g>
     <g id="text_5">
      <!-- -4 -->
      <defs>
       <path d="M 32.328125 0 
L 32.328125 17.140625 
L 1.265625 17.140625 
L 1.265625 25.203125 
L 33.9375 71.578125 
L 41.109375 71.578125 
L 41.109375 25.203125 
L 50.78125 25.203125 
L 50.78125 17.140625 
L 41.109375 17.140625 
L 41.109375 0 
z
M 32.328125 25.203125 
L 32.328125 57.46875 
L 9.90625 25.203125 
z
" id="ArialMT-52"/>
      </defs>
      <g style="fill:#262626;" transform="translate(161.782102 276.815625)scale(0.2 -0.2)">
       <use xlink:href="#ArialMT-45"/>
       <use x="33.300781" xlink:href="#ArialMT-52"/>
      </g>
     </g>
    </g>
    <g id="xtick_6">
     <g id="line2d_6">
      <g>
       <use style="fill:#262626;stroke:#262626;stroke-width:2;" x="196.036364" xlink:href="#m0910b916e4" y="252"/>
      </g>
     </g>
     <g id="text_6">
      <!-- -2 -->
      <g style="fill:#262626;" transform="translate(187.145739 276.815625)scale(0.2 -0.2)">
       <use xlink:href="#ArialMT-45"/>
       <use x="33.300781" xlink:href="#ArialMT-50"/>
      </g>
     </g>
    </g>
    <g id="xtick_7">
     <g id="line2d_7">
      <g>
       <use style="fill:#262626;stroke:#262626;stroke-width:2;" x="221.4" xlink:href="#m0910b916e4" y="252"/>
      </g>
     </g>
     <g id="text_7">
      <!-- fovea -->
      <defs>
       <path d="M 8.6875 0 
L 8.6875 45.015625 
L 0.921875 45.015625 
L 0.921875 51.859375 
L 8.6875 51.859375 
L 8.6875 57.375 
Q 8.6875 62.59375 9.625 65.140625 
Q 10.890625 68.5625 14.078125 70.671875 
Q 17.28125 72.796875 23.046875 72.796875 
Q 26.765625 72.796875 31.25 71.921875 
L 29.9375 64.265625 
Q 27.203125 64.75 24.75 64.75 
Q 20.75 64.75 19.09375 63.03125 
Q 17.4375 61.328125 17.4375 56.640625 
L 17.4375 51.859375 
L 27.546875 51.859375 
L 27.546875 45.015625 
L 17.4375 45.015625 
L 17.4375 0 
z
" id="ArialMT-102"/>
       <path d="M 3.328125 25.921875 
Q 3.328125 40.328125 11.328125 47.265625 
Q 18.015625 53.03125 27.640625 53.03125 
Q 38.328125 53.03125 45.109375 46.015625 
Q 51.90625 39.015625 51.90625 26.65625 
Q 51.90625 16.65625 48.90625 10.90625 
Q 45.90625 5.171875 40.15625 2 
Q 34.421875 -1.171875 27.640625 -1.171875 
Q 16.75 -1.171875 10.03125 5.8125 
Q 3.328125 12.796875 3.328125 25.921875 
z
M 12.359375 25.921875 
Q 12.359375 15.96875 16.703125 11.015625 
Q 21.046875 6.0625 27.640625 6.0625 
Q 34.1875 6.0625 38.53125 11.03125 
Q 42.875 16.015625 42.875 26.21875 
Q 42.875 35.84375 38.5 40.796875 
Q 34.125 45.75 27.640625 45.75 
Q 21.046875 45.75 16.703125 40.8125 
Q 12.359375 35.890625 12.359375 25.921875 
z
" id="ArialMT-111"/>
       <path d="M 21 0 
L 1.265625 51.859375 
L 10.546875 51.859375 
L 21.6875 20.796875 
Q 23.484375 15.765625 25 10.359375 
Q 26.171875 14.453125 28.265625 20.21875 
L 39.796875 51.859375 
L 48.828125 51.859375 
L 29.203125 0 
z
" id="ArialMT-118"/>
       <path d="M 42.09375 16.703125 
L 51.171875 15.578125 
Q 49.03125 7.625 43.21875 3.21875 
Q 37.40625 -1.171875 28.375 -1.171875 
Q 17 -1.171875 10.328125 5.828125 
Q 3.65625 12.84375 3.65625 25.484375 
Q 3.65625 38.578125 10.390625 45.796875 
Q 17.140625 53.03125 27.875 53.03125 
Q 38.28125 53.03125 44.875 45.953125 
Q 51.46875 38.875 51.46875 26.03125 
Q 51.46875 25.25 51.421875 23.6875 
L 12.75 23.6875 
Q 13.234375 15.140625 17.578125 10.59375 
Q 21.921875 6.0625 28.421875 6.0625 
Q 33.25 6.0625 36.671875 8.59375 
Q 40.09375 11.140625 42.09375 16.703125 
z
M 13.234375 30.90625 
L 42.1875 30.90625 
Q 41.609375 37.453125 38.875 40.71875 
Q 34.671875 45.796875 27.984375 45.796875 
Q 21.921875 45.796875 17.796875 41.75 
Q 13.671875 37.703125 13.234375 30.90625 
z
" id="ArialMT-101"/>
       <path d="M 40.4375 6.390625 
Q 35.546875 2.25 31.03125 0.53125 
Q 26.515625 -1.171875 21.34375 -1.171875 
Q 12.796875 -1.171875 8.203125 3 
Q 3.609375 7.171875 3.609375 13.671875 
Q 3.609375 17.484375 5.34375 20.625 
Q 7.078125 23.78125 9.890625 25.6875 
Q 12.703125 27.59375 16.21875 28.5625 
Q 18.796875 29.25 24.03125 29.890625 
Q 34.671875 31.15625 39.703125 32.90625 
Q 39.75 34.71875 39.75 35.203125 
Q 39.75 40.578125 37.25 42.78125 
Q 33.890625 45.75 27.25 45.75 
Q 21.046875 45.75 18.09375 43.578125 
Q 15.140625 41.40625 13.71875 35.890625 
L 5.125 37.0625 
Q 6.296875 42.578125 8.984375 45.96875 
Q 11.671875 49.359375 16.75 51.1875 
Q 21.828125 53.03125 28.515625 53.03125 
Q 35.15625 53.03125 39.296875 51.46875 
Q 43.453125 49.90625 45.40625 47.53125 
Q 47.359375 45.171875 48.140625 41.546875 
Q 48.578125 39.3125 48.578125 33.453125 
L 48.578125 21.734375 
Q 48.578125 9.46875 49.140625 6.21875 
Q 49.703125 2.984375 51.375 0 
L 42.1875 0 
Q 40.828125 2.734375 40.4375 6.390625 
z
M 39.703125 26.03125 
Q 34.90625 24.078125 25.34375 22.703125 
Q 19.921875 21.921875 17.671875 20.9375 
Q 15.4375 19.96875 14.203125 18.09375 
Q 12.984375 16.21875 12.984375 13.921875 
Q 12.984375 10.40625 15.640625 8.0625 
Q 18.3125 5.71875 23.4375 5.71875 
Q 28.515625 5.71875 32.46875 7.9375 
Q 36.421875 10.15625 38.28125 14.015625 
Q 39.703125 17 39.703125 22.796875 
z
" id="ArialMT-97"/>
      </defs>
      <g style="fill:#262626;" transform="translate(196.939063 276.815625)scale(0.2 -0.2)">
       <use xlink:href="#ArialMT-102"/>
       <use x="27.783203" xlink:href="#ArialMT-111"/>
       <use x="83.398438" xlink:href="#ArialMT-118"/>
       <use x="133.398438" xlink:href="#ArialMT-101"/>
       <use x="189.013672" xlink:href="#ArialMT-97"/>
      </g>
     </g>
    </g>
    <g id="xtick_8">
     <g id="line2d_8">
      <g>
       <use style="fill:#262626;stroke:#262626;stroke-width:2;" x="246.763636" xlink:href="#m0910b916e4" y="252"/>
      </g>
     </g>
     <g id="text_8">
      <!-- 2 -->
      <g style="fill:#262626;" transform="translate(241.202699 276.815625)scale(0.2 -0.2)">
       <use xlink:href="#ArialMT-50"/>
      </g>
     </g>
    </g>
    <g id="xtick_9">
     <g id="line2d_9">
      <g>
       <use style="fill:#262626;stroke:#262626;stroke-width:2;" x="272.127273" xlink:href="#m0910b916e4" y="252"/>
      </g>
     </g>
     <g id="text_9">
      <!-- 4 -->
      <g style="fill:#262626;" transform="translate(266.566335 276.815625)scale(0.2 -0.2)">
       <use xlink:href="#ArialMT-52"/>
      </g>
     </g>
    </g>
    <g id="xtick_10">
     <g id="line2d_10">
      <g>
       <use style="fill:#262626;stroke:#262626;stroke-width:2;" x="297.490909" xlink:href="#m0910b916e4" y="252"/>
      </g>
     </g>
     <g id="text_10">
      <!-- 6 -->
      <g style="fill:#262626;" transform="translate(291.929972 276.815625)scale(0.2 -0.2)">
       <use xlink:href="#ArialMT-54"/>
      </g>
     </g>
    </g>
    <g id="xtick_11">
     <g id="line2d_11">
      <g>
       <use style="fill:#262626;stroke:#262626;stroke-width:2;" x="322.854545" xlink:href="#m0910b916e4" y="252"/>
      </g>
     </g>
     <g id="text_11">
      <!-- 8 -->
      <g style="fill:#262626;" transform="translate(317.293608 276.815625)scale(0.2 -0.2)">
       <use xlink:href="#ArialMT-56"/>
      </g>
     </g>
    </g>
    <g id="xtick_12">
     <g id="line2d_12">
      <g>
       <use style="fill:#262626;stroke:#262626;stroke-width:2;" x="348.218182" xlink:href="#m0910b916e4" y="252"/>
      </g>
     </g>
     <g id="text_12">
      <!-- 10 -->
      <g style="fill:#262626;" transform="translate(337.096307 276.815625)scale(0.2 -0.2)">
       <use xlink:href="#ArialMT-49"/>
       <use x="55.615234" xlink:href="#ArialMT-48"/>
      </g>
     </g>
    </g>
    <g id="xtick_13">
     <g id="line2d_13">
      <g>
       <use style="fill:#262626;stroke:#262626;stroke-width:2;" x="373.581818" xlink:href="#m0910b916e4" y="252"/>
      </g>
     </g>
     <g id="text_13">
      <!-- 12 -->
      <g style="fill:#262626;" transform="translate(362.459943 276.815625)scale(0.2 -0.2)">
       <use xlink:href="#ArialMT-49"/>
       <use x="55.615234" xlink:href="#ArialMT-50"/>
      </g>
     </g>
    </g>
   </g>
   <g id="matplotlib.axis_2">
    <g id="ytick_1">
     <g id="line2d_14">
      <defs>
       <path d="M 0 0 
L -7 0 
" id="m26a1d3f328" style="stroke:#262626;stroke-width:2;"/>
      </defs>
      <g>
       <use style="fill:#262626;stroke:#262626;stroke-width:2;" x="54" xlink:href="#m26a1d3f328" y="252"/>
      </g>
     </g>
     <g id="text_14">
      <!-- 0.00 -->
      <defs>
       <path d="M 9.078125 0 
L 9.078125 10.015625 
L 19.09375 10.015625 
L 19.09375 0 
z
" id="ArialMT-46"/>
      </defs>
      <g style="fill:#262626;" transform="translate(4.578125 259.157812)scale(0.2 -0.2)">
       <use xlink:href="#ArialMT-48"/>
       <use x="55.615234" xlink:href="#ArialMT-46"/>
       <use x="83.398438" xlink:href="#ArialMT-48"/>
       <use x="139.013672" xlink:href="#ArialMT-48"/>
      </g>
     </g>
    </g>
    <g id="ytick_2">
     <g id="line2d_15">
      <g>
       <use style="fill:#262626;stroke:#262626;stroke-width:2;" x="54" xlink:href="#m26a1d3f328" y="218.025"/>
      </g>
     </g>
     <g id="text_15">
      <!-- 0.05 -->
      <defs>
       <path d="M 4.15625 18.75 
L 13.375 19.53125 
Q 14.40625 12.796875 18.140625 9.390625 
Q 21.875 6 27.15625 6 
Q 33.5 6 37.890625 10.78125 
Q 42.28125 15.578125 42.28125 23.484375 
Q 42.28125 31 38.0625 35.34375 
Q 33.84375 39.703125 27 39.703125 
Q 22.75 39.703125 19.328125 37.765625 
Q 15.921875 35.84375 13.96875 32.765625 
L 5.71875 33.84375 
L 12.640625 70.609375 
L 48.25 70.609375 
L 48.25 62.203125 
L 19.671875 62.203125 
L 15.828125 42.96875 
Q 22.265625 47.46875 29.34375 47.46875 
Q 38.71875 47.46875 45.15625 40.96875 
Q 51.609375 34.46875 51.609375 24.265625 
Q 51.609375 14.546875 45.953125 7.46875 
Q 39.0625 -1.21875 27.15625 -1.21875 
Q 17.390625 -1.21875 11.203125 4.25 
Q 5.03125 9.71875 4.15625 18.75 
z
" id="ArialMT-53"/>
      </defs>
      <g style="fill:#262626;" transform="translate(4.578125 225.182813)scale(0.2 -0.2)">
       <use xlink:href="#ArialMT-48"/>
       <use x="55.615234" xlink:href="#ArialMT-46"/>
       <use x="83.398438" xlink:href="#ArialMT-48"/>
       <use x="139.013672" xlink:href="#ArialMT-53"/>
      </g>
     </g>
    </g>
    <g id="ytick_3">
     <g id="line2d_16">
      <g>
       <use style="fill:#262626;stroke:#262626;stroke-width:2;" x="54" xlink:href="#m26a1d3f328" y="184.05"/>
      </g>
     </g>
     <g id="text_16">
      <!-- 0.10 -->
      <g style="fill:#262626;" transform="translate(4.578125 191.207812)scale(0.2 -0.2)">
       <use xlink:href="#ArialMT-48"/>
       <use x="55.615234" xlink:href="#ArialMT-46"/>
       <use x="83.398438" xlink:href="#ArialMT-49"/>
       <use x="139.013672" xlink:href="#ArialMT-48"/>
      </g>
     </g>
    </g>
    <g id="ytick_4">
     <g id="line2d_17">
      <g>
       <use style="fill:#262626;stroke:#262626;stroke-width:2;" x="54" xlink:href="#m26a1d3f328" y="150.075"/>
      </g>
     </g>
     <g id="text_17">
      <!-- 0.15 -->
      <g style="fill:#262626;" transform="translate(4.578125 157.232812)scale(0.2 -0.2)">
       <use xlink:href="#ArialMT-48"/>
       <use x="55.615234" xlink:href="#ArialMT-46"/>
       <use x="83.398438" xlink:href="#ArialMT-49"/>
       <use x="139.013672" xlink:href="#ArialMT-53"/>
      </g>
     </g>
    </g>
    <g id="ytick_5">
     <g id="line2d_18">
      <g>
       <use style="fill:#262626;stroke:#262626;stroke-width:2;" x="54" xlink:href="#m26a1d3f328" y="116.1"/>
      </g>
     </g>
     <g id="text_18">
      <!-- 0.20 -->
      <g style="fill:#262626;" transform="translate(4.578125 123.257812)scale(0.2 -0.2)">
       <use xlink:href="#ArialMT-48"/>
       <use x="55.615234" xlink:href="#ArialMT-46"/>
       <use x="83.398438" xlink:href="#ArialMT-50"/>
       <use x="139.013672" xlink:href="#ArialMT-48"/>
      </g>
     </g>
    </g>
    <g id="ytick_6">
     <g id="line2d_19">
      <g>
       <use style="fill:#262626;stroke:#262626;stroke-width:2;" x="54" xlink:href="#m26a1d3f328" y="82.125"/>
      </g>
     </g>
     <g id="text_19">
      <!-- 0.25 -->
      <g style="fill:#262626;" transform="translate(4.578125 89.282813)scale(0.2 -0.2)">
       <use xlink:href="#ArialMT-48"/>
       <use x="55.615234" xlink:href="#ArialMT-46"/>
       <use x="83.398438" xlink:href="#ArialMT-50"/>
       <use x="139.013672" xlink:href="#ArialMT-53"/>
      </g>
     </g>
    </g>
    <g id="ytick_7">
     <g id="line2d_20">
      <g>
       <use style="fill:#262626;stroke:#262626;stroke-width:2;" x="54" xlink:href="#m26a1d3f328" y="48.15"/>
      </g>
     </g>
     <g id="text_20">
      <!-- 0.30 -->
      <defs>
       <path d="M 4.203125 18.890625 
L 12.984375 20.0625 
Q 14.5 12.59375 18.140625 9.296875 
Q 21.78125 6 27 6 
Q 33.203125 6 37.46875 10.296875 
Q 41.75 14.59375 41.75 20.953125 
Q 41.75 27 37.796875 30.921875 
Q 33.84375 34.859375 27.734375 34.859375 
Q 25.25 34.859375 21.53125 33.890625 
L 22.515625 41.609375 
Q 23.390625 41.5 23.921875 41.5 
Q 29.546875 41.5 34.03125 44.421875 
Q 38.53125 47.359375 38.53125 53.46875 
Q 38.53125 58.296875 35.25 61.46875 
Q 31.984375 64.65625 26.8125 64.65625 
Q 21.6875 64.65625 18.265625 61.421875 
Q 14.84375 58.203125 13.875 51.765625 
L 5.078125 53.328125 
Q 6.6875 62.15625 12.390625 67.015625 
Q 18.109375 71.875 26.609375 71.875 
Q 32.46875 71.875 37.390625 69.359375 
Q 42.328125 66.84375 44.9375 62.5 
Q 47.5625 58.15625 47.5625 53.265625 
Q 47.5625 48.640625 45.0625 44.828125 
Q 42.578125 41.015625 37.703125 38.765625 
Q 44.046875 37.3125 47.5625 32.6875 
Q 51.078125 28.078125 51.078125 21.140625 
Q 51.078125 11.765625 44.234375 5.25 
Q 37.40625 -1.265625 26.953125 -1.265625 
Q 17.53125 -1.265625 11.296875 4.34375 
Q 5.078125 9.96875 4.203125 18.890625 
z
" id="ArialMT-51"/>
      </defs>
      <g style="fill:#262626;" transform="translate(4.578125 55.307812)scale(0.2 -0.2)">
       <use xlink:href="#ArialMT-48"/>
       <use x="55.615234" xlink:href="#ArialMT-46"/>
       <use x="83.398438" xlink:href="#ArialMT-51"/>
       <use x="139.013672" xlink:href="#ArialMT-48"/>
      </g>
     </g>
    </g>
   </g>
   <g id="PolyCollection_1">
    <defs>
     <path d="M 69.218182 -161.858593 
L 69.218182 -62.349407 
L 94.581818 -38.057483 
L 119.945455 -44.435087 
L 145.309091 -71.803172 
L 170.672727 -96.311831 
L 196.036364 -100.126973 
L 221.4 -135.428892 
L 246.763636 -123.287452 
L 272.127273 -107.375718 
L 297.490909 -79.143343 
L 322.854545 -104.023835 
L 348.218182 -43.342863 
L 373.581818 -9.686889 
L 373.581818 -134.068311 
L 373.581818 -134.068311 
L 348.218182 -150.423537 
L 322.854545 -215.857765 
L 297.490909 -160.285457 
L 272.127273 -177.715482 
L 246.763636 -222.686948 
L 221.4 -210.545508 
L 196.036364 -195.836227 
L 170.672727 -197.476969 
L 145.309091 -182.846428 
L 119.945455 -181.947313 
L 94.581818 -168.755317 
L 69.218182 -161.858593 
z
" id="maa30965f3f" style="stroke:#ffffff;stroke-opacity:0.5;"/>
    </defs>
    <g clip-path="url(#p077323c649)">
     <use style="fill:#add8e6;fill-opacity:0.5;stroke:#ffffff;stroke-opacity:0.5;" x="0" xlink:href="#maa30965f3f" y="288"/>
    </g>
   </g>
   <g id="line2d_21">
    <path clip-path="url(#p077323c649)" d="M 69.218182 175.896 
L 94.581818 184.5936 
L 119.945455 174.8088 
L 145.309091 160.6752 
L 170.672727 141.1056 
L 196.036364 140.0184 
L 221.4 115.0128 
L 246.763636 115.0128 
L 272.127273 145.4544 
L 297.490909 168.2856 
L 322.854545 128.0592 
L 348.218182 191.1168 
L 373.581818 216.1224 
" style="fill:none;stroke:#4682b4;stroke-linecap:round;stroke-width:1.5;"/>
   </g>
   <g id="line2d_22">
    <path clip-path="url(#p077323c649)" d="M 69.218182 208.512 
L 94.581818 208.512 
L 119.945455 210.6864 
L 145.309091 206.3376 
L 170.672727 210.6864 
L 196.036364 207.4248 
L 221.4 208.512 
L 246.763636 209.5992 
L 272.127273 208.512 
L 297.490909 206.3376 
L 322.854545 210.6864 
L 348.218182 213.948 
L 373.581818 211.7736 
" style="fill:none;stroke:#808080;stroke-dasharray:5.55,2.4;stroke-dashoffset:0;stroke-width:1.5;"/>
   </g>
   <g id="patch_3">
    <path d="M 54 252 
L 54 34.56 
" style="fill:none;stroke:#262626;stroke-linecap:square;stroke-linejoin:miter;stroke-width:1.25;"/>
   </g>
   <g id="patch_4">
    <path d="M 54 252 
L 388.8 252 
" style="fill:none;stroke:#262626;stroke-linecap:square;stroke-linejoin:miter;stroke-width:1.25;"/>
   </g>
  </g>
 </g>
 <defs>
  <clipPath id="p077323c649">
   <rect height="217.44" width="334.8" x="54" y="34.56"/>
  </clipPath>
 </defs>
</svg>
