<?xml version="1.0" encoding="utf-8" standalone="no"?>
<!DOCTYPE svg PUBLIC "-//W3C//DTD SVG 1.1//EN"
  "http://www.w3.org/Graphics/SVG/1.1/DTD/svg11.dtd">
<!-- Created with matplotlib (https://matplotlib.org/) -->
<svg height="288pt" version="1.1" viewBox="0 0 432 288" width="432pt" xmlns="http://www.w3.org/2000/svg" xmlns:xlink="http://www.w3.org/1999/xlink">
 <metadata>
  <rdf:RDF xmlns:cc="http://creativecommons.org/ns#" xmlns:dc="http://purl.org/dc/elements/1.1/" xmlns:rdf="http://www.w3.org/1999/02/22-rdf-syntax-ns#">
   <cc:Work>
    <dc:type rdf:resource="http://purl.org/dc/dcmitype/StillImage"/>
    <dc:date>2021-11-03T14:29:39.766196</dc:date>
    <dc:format>image/svg+xml</dc:format>
    <dc:creator>
     <cc:Agent>
      <dc:title>Matplotlib v3.3.4, https://matplotlib.org/</dc:title>
     </cc:Agent>
    </dc:creator>
   </cc:Work>
  </rdf:RDF>
 </metadata>
 <defs>
  <style type="text/css">*{stroke-linecap:butt;stroke-linejoin:round;}</style>
 </defs>
 <g id="figure_1">
  <g id="patch_1">
   <path d="M 0 288 
L 432 288 
L 432 0 
L 0 0 
z
" style="fill:#ffffff;"/>
  </g>
  <g id="axes_1">
   <g id="patch_2">
    <path d="M 54 252 
L 388.8 252 
L 388.8 34.56 
L 54 34.56 
z
" style="fill:#ffffff;"/>
   </g>
   <g id="matplotlib.axis_1">
    <g id="xtick_1">
     <g id="text_1">
      <!-- -12 -->
      <g style="fill:#262626;" transform="translate(61.992401 268.657812)scale(0.1 -0.1)">
       <defs>
        <path d="M 3.171875 21.484375 
L 3.171875 30.328125 
L 30.171875 30.328125 
L 30.171875 21.484375 
z
" id="ArialMT-45"/>
        <path d="M 37.25 0 
L 28.46875 0 
L 28.46875 56 
Q 25.296875 52.984375 20.140625 49.953125 
Q 14.984375 46.921875 10.890625 45.40625 
L 10.890625 53.90625 
Q 18.265625 57.375 23.78125 62.296875 
Q 29.296875 67.234375 31.59375 71.875 
L 37.25 71.875 
z
" id="ArialMT-49"/>
        <path d="M 50.34375 8.453125 
L 50.34375 0 
L 3.03125 0 
Q 2.9375 3.171875 4.046875 6.109375 
Q 5.859375 10.9375 9.828125 15.625 
Q 13.8125 20.3125 21.34375 26.46875 
Q 33.015625 36.03125 37.109375 41.625 
Q 41.21875 47.21875 41.21875 52.203125 
Q 41.21875 57.421875 37.46875 61 
Q 33.734375 64.59375 27.734375 64.59375 
Q 21.390625 64.59375 17.578125 60.78125 
Q 13.765625 56.984375 13.71875 50.25 
L 4.6875 51.171875 
Q 5.609375 61.28125 11.65625 66.578125 
Q 17.71875 71.875 27.9375 71.875 
Q 38.234375 71.875 44.234375 66.15625 
Q 50.25 60.453125 50.25 52 
Q 50.25 47.703125 48.484375 43.546875 
Q 46.734375 39.40625 42.65625 34.8125 
Q 38.578125 30.21875 29.109375 22.21875 
Q 21.1875 15.578125 18.9375 13.203125 
Q 16.703125 10.84375 15.234375 8.453125 
z
" id="ArialMT-50"/>
       </defs>
       <use xlink:href="#ArialMT-45"/>
       <use x="33.300781" xlink:href="#ArialMT-49"/>
       <use x="88.916016" xlink:href="#ArialMT-50"/>
      </g>
     </g>
    </g>
    <g id="xtick_2">
     <g id="text_2">
      <!-- -10 -->
      <g style="fill:#262626;" transform="translate(87.356037 268.657812)scale(0.1 -0.1)">
       <defs>
        <path d="M 4.15625 35.296875 
Q 4.15625 48 6.765625 55.734375 
Q 9.375 63.484375 14.515625 67.671875 
Q 19.671875 71.875 27.484375 71.875 
Q 33.25 71.875 37.59375 69.546875 
Q 41.9375 67.234375 44.765625 62.859375 
Q 47.609375 58.5 49.21875 52.21875 
Q 50.828125 45.953125 50.828125 35.296875 
Q 50.828125 22.703125 48.234375 14.96875 
Q 45.65625 7.234375 40.5 3 
Q 35.359375 -1.21875 27.484375 -1.21875 
Q 17.140625 -1.21875 11.234375 6.203125 
Q 4.15625 15.140625 4.15625 35.296875 
z
M 13.1875 35.296875 
Q 13.1875 17.671875 17.3125 11.828125 
Q 21.4375 6 27.484375 6 
Q 33.546875 6 37.671875 11.859375 
Q 41.796875 17.71875 41.796875 35.296875 
Q 41.796875 52.984375 37.671875 58.78125 
Q 33.546875 64.59375 27.390625 64.59375 
Q 21.34375 64.59375 17.71875 59.46875 
Q 13.1875 52.9375 13.1875 35.296875 
z
" id="ArialMT-48"/>
       </defs>
       <use xlink:href="#ArialMT-45"/>
       <use x="33.300781" xlink:href="#ArialMT-49"/>
       <use x="88.916016" xlink:href="#ArialMT-48"/>
      </g>
     </g>
    </g>
    <g id="xtick_3">
     <g id="text_3">
      <!-- -8 -->
      <g style="fill:#262626;" transform="translate(115.500142 268.657812)scale(0.1 -0.1)">
       <defs>
        <path d="M 17.671875 38.8125 
Q 12.203125 40.828125 9.5625 44.53125 
Q 6.9375 48.25 6.9375 53.421875 
Q 6.9375 61.234375 12.546875 66.546875 
Q 18.171875 71.875 27.484375 71.875 
Q 36.859375 71.875 42.578125 66.421875 
Q 48.296875 60.984375 48.296875 53.171875 
Q 48.296875 48.1875 45.671875 44.5 
Q 43.0625 40.828125 37.75 38.8125 
Q 44.34375 36.671875 47.78125 31.875 
Q 51.21875 27.09375 51.21875 20.453125 
Q 51.21875 11.28125 44.71875 5.03125 
Q 38.234375 -1.21875 27.640625 -1.21875 
Q 17.046875 -1.21875 10.546875 5.046875 
Q 4.046875 11.328125 4.046875 20.703125 
Q 4.046875 27.6875 7.59375 32.390625 
Q 11.140625 37.109375 17.671875 38.8125 
z
M 15.921875 53.71875 
Q 15.921875 48.640625 19.1875 45.40625 
Q 22.46875 42.1875 27.6875 42.1875 
Q 32.765625 42.1875 36.015625 45.375 
Q 39.265625 48.578125 39.265625 53.21875 
Q 39.265625 58.0625 35.90625 61.359375 
Q 32.5625 64.65625 27.59375 64.65625 
Q 22.5625 64.65625 19.234375 61.421875 
Q 15.921875 58.203125 15.921875 53.71875 
z
M 13.09375 20.65625 
Q 13.09375 16.890625 14.875 13.375 
Q 16.65625 9.859375 20.171875 7.921875 
Q 23.6875 6 27.734375 6 
Q 34.03125 6 38.125 10.046875 
Q 42.234375 14.109375 42.234375 20.359375 
Q 42.234375 26.703125 38.015625 30.859375 
Q 33.796875 35.015625 27.4375 35.015625 
Q 21.234375 35.015625 17.15625 30.90625 
Q 13.09375 26.8125 13.09375 20.65625 
z
" id="ArialMT-56"/>
       </defs>
       <use xlink:href="#ArialMT-45"/>
       <use x="33.300781" xlink:href="#ArialMT-56"/>
      </g>
     </g>
    </g>
    <g id="xtick_4">
     <g id="text_4">
      <!-- -6 -->
      <g style="fill:#262626;" transform="translate(140.863778 268.657812)scale(0.1 -0.1)">
       <defs>
        <path d="M 49.75 54.046875 
L 41.015625 53.375 
Q 39.84375 58.546875 37.703125 60.890625 
Q 34.125 64.65625 28.90625 64.65625 
Q 24.703125 64.65625 21.53125 62.3125 
Q 17.390625 59.28125 14.984375 53.46875 
Q 12.59375 47.65625 12.5 36.921875 
Q 15.671875 41.75 20.265625 44.09375 
Q 24.859375 46.4375 29.890625 46.4375 
Q 38.671875 46.4375 44.84375 39.96875 
Q 51.03125 33.5 51.03125 23.25 
Q 51.03125 16.5 48.125 10.71875 
Q 45.21875 4.9375 40.140625 1.859375 
Q 35.0625 -1.21875 28.609375 -1.21875 
Q 17.625 -1.21875 10.6875 6.859375 
Q 3.765625 14.9375 3.765625 33.5 
Q 3.765625 54.25 11.421875 63.671875 
Q 18.109375 71.875 29.4375 71.875 
Q 37.890625 71.875 43.28125 67.140625 
Q 48.6875 62.40625 49.75 54.046875 
z
M 13.875 23.1875 
Q 13.875 18.65625 15.796875 14.5 
Q 17.71875 10.359375 21.1875 8.171875 
Q 24.65625 6 28.46875 6 
Q 34.03125 6 38.03125 10.484375 
Q 42.046875 14.984375 42.046875 22.703125 
Q 42.046875 30.125 38.078125 34.390625 
Q 34.125 38.671875 28.125 38.671875 
Q 22.171875 38.671875 18.015625 34.390625 
Q 13.875 30.125 13.875 23.1875 
z
" id="ArialMT-54"/>
       </defs>
       <use xlink:href="#ArialMT-45"/>
       <use x="33.300781" xlink:href="#ArialMT-54"/>
      </g>
     </g>
    </g>
    <g id="xtick_5">
     <g id="text_5">
      <!-- -4 -->
      <g style="fill:#262626;" transform="translate(166.227415 268.657812)scale(0.1 -0.1)">
       <defs>
        <path d="M 32.328125 0 
L 32.328125 17.140625 
L 1.265625 17.140625 
L 1.265625 25.203125 
L 33.9375 71.578125 
L 41.109375 71.578125 
L 41.109375 25.203125 
L 50.78125 25.203125 
L 50.78125 17.140625 
L 41.109375 17.140625 
L 41.109375 0 
z
M 32.328125 25.203125 
L 32.328125 57.46875 
L 9.90625 25.203125 
z
" id="ArialMT-52"/>
       </defs>
       <use xlink:href="#ArialMT-45"/>
       <use x="33.300781" xlink:href="#ArialMT-52"/>
      </g>
     </g>
    </g>
    <g id="xtick_6">
     <g id="text_6">
      <!-- -2 -->
      <g style="fill:#262626;" transform="translate(191.591051 268.657812)scale(0.1 -0.1)">
       <use xlink:href="#ArialMT-45"/>
       <use x="33.300781" xlink:href="#ArialMT-50"/>
      </g>
     </g>
    </g>
    <g id="xtick_7">
     <g id="text_7">
      <!-- fovea -->
      <g style="fill:#262626;" transform="translate(209.169531 268.657812)scale(0.1 -0.1)">
       <defs>
        <path d="M 8.6875 0 
L 8.6875 45.015625 
L 0.921875 45.015625 
L 0.921875 51.859375 
L 8.6875 51.859375 
L 8.6875 57.375 
Q 8.6875 62.59375 9.625 65.140625 
Q 10.890625 68.5625 14.078125 70.671875 
Q 17.28125 72.796875 23.046875 72.796875 
Q 26.765625 72.796875 31.25 71.921875 
L 29.9375 64.265625 
Q 27.203125 64.75 24.75 64.75 
Q 20.75 64.75 19.09375 63.03125 
Q 17.4375 61.328125 17.4375 56.640625 
L 17.4375 51.859375 
L 27.546875 51.859375 
L 27.546875 45.015625 
L 17.4375 45.015625 
L 17.4375 0 
z
" id="ArialMT-102"/>
        <path d="M 3.328125 25.921875 
Q 3.328125 40.328125 11.328125 47.265625 
Q 18.015625 53.03125 27.640625 53.03125 
Q 38.328125 53.03125 45.109375 46.015625 
Q 51.90625 39.015625 51.90625 26.65625 
Q 51.90625 16.65625 48.90625 10.90625 
Q 45.90625 5.171875 40.15625 2 
Q 34.421875 -1.171875 27.640625 -1.171875 
Q 16.75 -1.171875 10.03125 5.8125 
Q 3.328125 12.796875 3.328125 25.921875 
z
M 12.359375 25.921875 
Q 12.359375 15.96875 16.703125 11.015625 
Q 21.046875 6.0625 27.640625 6.0625 
Q 34.1875 6.0625 38.53125 11.03125 
Q 42.875 16.015625 42.875 26.21875 
Q 42.875 35.84375 38.5 40.796875 
Q 34.125 45.75 27.640625 45.75 
Q 21.046875 45.75 16.703125 40.8125 
Q 12.359375 35.890625 12.359375 25.921875 
z
" id="ArialMT-111"/>
        <path d="M 21 0 
L 1.265625 51.859375 
L 10.546875 51.859375 
L 21.6875 20.796875 
Q 23.484375 15.765625 25 10.359375 
Q 26.171875 14.453125 28.265625 20.21875 
L 39.796875 51.859375 
L 48.828125 51.859375 
L 29.203125 0 
z
" id="ArialMT-118"/>
        <path d="M 42.09375 16.703125 
L 51.171875 15.578125 
Q 49.03125 7.625 43.21875 3.21875 
Q 37.40625 -1.171875 28.375 -1.171875 
Q 17 -1.171875 10.328125 5.828125 
Q 3.65625 12.84375 3.65625 25.484375 
Q 3.65625 38.578125 10.390625 45.796875 
Q 17.140625 53.03125 27.875 53.03125 
Q 38.28125 53.03125 44.875 45.953125 
Q 51.46875 38.875 51.46875 26.03125 
Q 51.46875 25.25 51.421875 23.6875 
L 12.75 23.6875 
Q 13.234375 15.140625 17.578125 10.59375 
Q 21.921875 6.0625 28.421875 6.0625 
Q 33.25 6.0625 36.671875 8.59375 
Q 40.09375 11.140625 42.09375 16.703125 
z
M 13.234375 30.90625 
L 42.1875 30.90625 
Q 41.609375 37.453125 38.875 40.71875 
Q 34.671875 45.796875 27.984375 45.796875 
Q 21.921875 45.796875 17.796875 41.75 
Q 13.671875 37.703125 13.234375 30.90625 
z
" id="ArialMT-101"/>
        <path d="M 40.4375 6.390625 
Q 35.546875 2.25 31.03125 0.53125 
Q 26.515625 -1.171875 21.34375 -1.171875 
Q 12.796875 -1.171875 8.203125 3 
Q 3.609375 7.171875 3.609375 13.671875 
Q 3.609375 17.484375 5.34375 20.625 
Q 7.078125 23.78125 9.890625 25.6875 
Q 12.703125 27.59375 16.21875 28.5625 
Q 18.796875 29.25 24.03125 29.890625 
Q 34.671875 31.15625 39.703125 32.90625 
Q 39.75 34.71875 39.75 35.203125 
Q 39.75 40.578125 37.25 42.78125 
Q 33.890625 45.75 27.25 45.75 
Q 21.046875 45.75 18.09375 43.578125 
Q 15.140625 41.40625 13.71875 35.890625 
L 5.125 37.0625 
Q 6.296875 42.578125 8.984375 45.96875 
Q 11.671875 49.359375 16.75 51.1875 
Q 21.828125 53.03125 28.515625 53.03125 
Q 35.15625 53.03125 39.296875 51.46875 
Q 43.453125 49.90625 45.40625 47.53125 
Q 47.359375 45.171875 48.140625 41.546875 
Q 48.578125 39.3125 48.578125 33.453125 
L 48.578125 21.734375 
Q 48.578125 9.46875 49.140625 6.21875 
Q 49.703125 2.984375 51.375 0 
L 42.1875 0 
Q 40.828125 2.734375 40.4375 6.390625 
z
M 39.703125 26.03125 
Q 34.90625 24.078125 25.34375 22.703125 
Q 19.921875 21.921875 17.671875 20.9375 
Q 15.4375 19.96875 14.203125 18.09375 
Q 12.984375 16.21875 12.984375 13.921875 
Q 12.984375 10.40625 15.640625 8.0625 
Q 18.3125 5.71875 23.4375 5.71875 
Q 28.515625 5.71875 32.46875 7.9375 
Q 36.421875 10.15625 38.28125 14.015625 
Q 39.703125 17 39.703125 22.796875 
z
" id="ArialMT-97"/>
       </defs>
       <use xlink:href="#ArialMT-102"/>
       <use x="27.783203" xlink:href="#ArialMT-111"/>
       <use x="83.398438" xlink:href="#ArialMT-118"/>
       <use x="133.398438" xlink:href="#ArialMT-101"/>
       <use x="189.013672" xlink:href="#ArialMT-97"/>
      </g>
     </g>
    </g>
    <g id="xtick_8">
     <g id="text_8">
      <!-- 2 -->
      <g style="fill:#262626;" transform="translate(243.983168 268.657812)scale(0.1 -0.1)">
       <use xlink:href="#ArialMT-50"/>
      </g>
     </g>
    </g>
    <g id="xtick_9">
     <g id="text_9">
      <!-- 4 -->
      <g style="fill:#262626;" transform="translate(269.346804 268.657812)scale(0.1 -0.1)">
       <use xlink:href="#ArialMT-52"/>
      </g>
     </g>
    </g>
    <g id="xtick_10">
     <g id="text_10">
      <!-- 6 -->
      <g style="fill:#262626;" transform="translate(294.71044 268.657812)scale(0.1 -0.1)">
       <use xlink:href="#ArialMT-54"/>
      </g>
     </g>
    </g>
    <g id="xtick_11">
     <g id="text_11">
      <!-- 8 -->
      <g style="fill:#262626;" transform="translate(320.074077 268.657812)scale(0.1 -0.1)">
       <use xlink:href="#ArialMT-56"/>
      </g>
     </g>
    </g>
    <g id="xtick_12">
     <g id="text_12">
      <!-- 10 -->
      <g style="fill:#262626;" transform="translate(342.657244 268.657812)scale(0.1 -0.1)">
       <use xlink:href="#ArialMT-49"/>
       <use x="55.615234" xlink:href="#ArialMT-48"/>
      </g>
     </g>
    </g>
    <g id="xtick_13">
     <g id="text_13">
      <!-- 12 -->
      <g style="fill:#262626;" transform="translate(368.020881 268.657812)scale(0.1 -0.1)">
       <use xlink:href="#ArialMT-49"/>
       <use x="55.615234" xlink:href="#ArialMT-50"/>
      </g>
     </g>
    </g>
    <g id="text_14">
     <!-- ECC_PLOT -->
     <g style="fill:#262626;" transform="translate(200.283125 280.474063)scale(0.08 -0.08)">
      <defs>
       <path d="M 7.90625 0 
L 7.90625 71.578125 
L 59.671875 71.578125 
L 59.671875 63.140625 
L 17.390625 63.140625 
L 17.390625 41.21875 
L 56.984375 41.21875 
L 56.984375 32.8125 
L 17.390625 32.8125 
L 17.390625 8.453125 
L 61.328125 8.453125 
L 61.328125 0 
z
" id="ArialMT-69"/>
       <path d="M 58.796875 25.09375 
L 68.265625 22.703125 
Q 65.28125 11.03125 57.546875 4.90625 
Q 49.8125 -1.21875 38.625 -1.21875 
Q 27.046875 -1.21875 19.796875 3.484375 
Q 12.546875 8.203125 8.765625 17.140625 
Q 4.984375 26.078125 4.984375 36.328125 
Q 4.984375 47.515625 9.25 55.828125 
Q 13.53125 64.15625 21.40625 68.46875 
Q 29.296875 72.796875 38.765625 72.796875 
Q 49.515625 72.796875 56.828125 67.328125 
Q 64.15625 61.859375 67.046875 51.953125 
L 57.71875 49.75 
Q 55.21875 57.5625 50.484375 61.125 
Q 45.75 64.703125 38.578125 64.703125 
Q 30.328125 64.703125 24.78125 60.734375 
Q 19.234375 56.78125 16.984375 50.109375 
Q 14.75 43.453125 14.75 36.375 
Q 14.75 27.25 17.40625 20.4375 
Q 20.0625 13.625 25.671875 10.25 
Q 31.296875 6.890625 37.84375 6.890625 
Q 45.796875 6.890625 51.3125 11.46875 
Q 56.84375 16.0625 58.796875 25.09375 
z
" id="ArialMT-67"/>
       <path d="M -1.515625 -19.875 
L -1.515625 -13.53125 
L 56.734375 -13.53125 
L 56.734375 -19.875 
z
" id="ArialMT-95"/>
       <path d="M 7.71875 0 
L 7.71875 71.578125 
L 34.71875 71.578125 
Q 41.84375 71.578125 45.609375 70.90625 
Q 50.875 70.015625 54.4375 67.546875 
Q 58.015625 65.09375 60.1875 60.640625 
Q 62.359375 56.203125 62.359375 50.875 
Q 62.359375 41.75 56.546875 35.421875 
Q 50.734375 29.109375 35.546875 29.109375 
L 17.1875 29.109375 
L 17.1875 0 
z
M 17.1875 37.546875 
L 35.6875 37.546875 
Q 44.875 37.546875 48.734375 40.96875 
Q 52.59375 44.390625 52.59375 50.59375 
Q 52.59375 55.078125 50.3125 58.265625 
Q 48.046875 61.46875 44.34375 62.5 
Q 41.9375 63.140625 35.5 63.140625 
L 17.1875 63.140625 
z
" id="ArialMT-80"/>
       <path d="M 7.328125 0 
L 7.328125 71.578125 
L 16.796875 71.578125 
L 16.796875 8.453125 
L 52.046875 8.453125 
L 52.046875 0 
z
" id="ArialMT-76"/>
       <path d="M 4.828125 34.859375 
Q 4.828125 52.6875 14.390625 62.765625 
Q 23.96875 72.859375 39.109375 72.859375 
Q 49.03125 72.859375 56.984375 68.109375 
Q 64.9375 63.375 69.109375 54.90625 
Q 73.296875 46.4375 73.296875 35.6875 
Q 73.296875 24.8125 68.890625 16.21875 
Q 64.5 7.625 56.4375 3.203125 
Q 48.390625 -1.21875 39.0625 -1.21875 
Q 28.953125 -1.21875 20.984375 3.65625 
Q 13.03125 8.546875 8.921875 16.984375 
Q 4.828125 25.4375 4.828125 34.859375 
z
M 14.59375 34.71875 
Q 14.59375 21.78125 21.546875 14.328125 
Q 28.515625 6.890625 39.015625 6.890625 
Q 49.703125 6.890625 56.609375 14.40625 
Q 63.53125 21.921875 63.53125 35.75 
Q 63.53125 44.484375 60.578125 51 
Q 57.625 57.515625 51.921875 61.109375 
Q 46.234375 64.703125 39.15625 64.703125 
Q 29.109375 64.703125 21.84375 57.78125 
Q 14.59375 50.875 14.59375 34.71875 
z
" id="ArialMT-79"/>
       <path d="M 25.921875 0 
L 25.921875 63.140625 
L 2.34375 63.140625 
L 2.34375 71.578125 
L 59.078125 71.578125 
L 59.078125 63.140625 
L 35.40625 63.140625 
L 35.40625 0 
z
" id="ArialMT-84"/>
      </defs>
      <use xlink:href="#ArialMT-69"/>
      <use x="66.699219" xlink:href="#ArialMT-67"/>
      <use x="138.916016" xlink:href="#ArialMT-67"/>
      <use x="211.132812" xlink:href="#ArialMT-95"/>
      <use x="266.748047" xlink:href="#ArialMT-80"/>
      <use x="333.447266" xlink:href="#ArialMT-76"/>
      <use x="389.0625" xlink:href="#ArialMT-79"/>
      <use x="466.845703" xlink:href="#ArialMT-84"/>
     </g>
    </g>
   </g>
   <g id="matplotlib.axis_2">
    <g id="ytick_1">
     <g id="text_15">
      <!-- 0.5 -->
      <g style="fill:#262626;" transform="translate(30.6 255.578906)scale(0.1 -0.1)">
       <defs>
        <path d="M 9.078125 0 
L 9.078125 10.015625 
L 19.09375 10.015625 
L 19.09375 0 
z
" id="ArialMT-46"/>
        <path d="M 4.15625 18.75 
L 13.375 19.53125 
Q 14.40625 12.796875 18.140625 9.390625 
Q 21.875 6 27.15625 6 
Q 33.5 6 37.890625 10.78125 
Q 42.28125 15.578125 42.28125 23.484375 
Q 42.28125 31 38.0625 35.34375 
Q 33.84375 39.703125 27 39.703125 
Q 22.75 39.703125 19.328125 37.765625 
Q 15.921875 35.84375 13.96875 32.765625 
L 5.71875 33.84375 
L 12.640625 70.609375 
L 48.25 70.609375 
L 48.25 62.203125 
L 19.671875 62.203125 
L 15.828125 42.96875 
Q 22.265625 47.46875 29.34375 47.46875 
Q 38.71875 47.46875 45.15625 40.96875 
Q 51.609375 34.46875 51.609375 24.265625 
Q 51.609375 14.546875 45.953125 7.46875 
Q 39.0625 -1.21875 27.15625 -1.21875 
Q 17.390625 -1.21875 11.203125 4.25 
Q 5.03125 9.71875 4.15625 18.75 
z
" id="ArialMT-53"/>
       </defs>
       <use xlink:href="#ArialMT-48"/>
       <use x="55.615234" xlink:href="#ArialMT-46"/>
       <use x="83.398438" xlink:href="#ArialMT-53"/>
      </g>
     </g>
    </g>
    <g id="ytick_2">
     <g id="text_16">
      <!-- 0.6 -->
      <g style="fill:#262626;" transform="translate(30.6 212.090906)scale(0.1 -0.1)">
       <use xlink:href="#ArialMT-48"/>
       <use x="55.615234" xlink:href="#ArialMT-46"/>
       <use x="83.398438" xlink:href="#ArialMT-54"/>
      </g>
     </g>
    </g>
    <g id="ytick_3">
     <g id="text_17">
      <!-- 0.7 -->
      <g style="fill:#262626;" transform="translate(30.6 168.602906)scale(0.1 -0.1)">
       <defs>
        <path d="M 4.734375 62.203125 
L 4.734375 70.65625 
L 51.078125 70.65625 
L 51.078125 63.8125 
Q 44.234375 56.546875 37.515625 44.484375 
Q 30.8125 32.421875 27.15625 19.671875 
Q 24.515625 10.6875 23.78125 0 
L 14.75 0 
Q 14.890625 8.453125 18.0625 20.40625 
Q 21.234375 32.375 27.171875 43.484375 
Q 33.109375 54.59375 39.796875 62.203125 
z
" id="ArialMT-55"/>
       </defs>
       <use xlink:href="#ArialMT-48"/>
       <use x="55.615234" xlink:href="#ArialMT-46"/>
       <use x="83.398438" xlink:href="#ArialMT-55"/>
      </g>
     </g>
    </g>
    <g id="ytick_4">
     <g id="text_18">
      <!-- 0.8 -->
      <g style="fill:#262626;" transform="translate(30.6 125.114906)scale(0.1 -0.1)">
       <use xlink:href="#ArialMT-48"/>
       <use x="55.615234" xlink:href="#ArialMT-46"/>
       <use x="83.398438" xlink:href="#ArialMT-56"/>
      </g>
     </g>
    </g>
    <g id="ytick_5">
     <g id="text_19">
      <!-- 0.9 -->
      <g style="fill:#262626;" transform="translate(30.6 81.626906)scale(0.1 -0.1)">
       <defs>
        <path d="M 5.46875 16.546875 
L 13.921875 17.328125 
Q 14.984375 11.375 18.015625 8.6875 
Q 21.046875 6 25.78125 6 
Q 29.828125 6 32.875 7.859375 
Q 35.9375 9.71875 37.890625 12.8125 
Q 39.84375 15.921875 41.15625 21.1875 
Q 42.484375 26.46875 42.484375 31.9375 
Q 42.484375 32.515625 42.4375 33.6875 
Q 39.796875 29.5 35.234375 26.875 
Q 30.671875 24.265625 25.34375 24.265625 
Q 16.453125 24.265625 10.296875 30.703125 
Q 4.15625 37.15625 4.15625 47.703125 
Q 4.15625 58.59375 10.578125 65.234375 
Q 17 71.875 26.65625 71.875 
Q 33.640625 71.875 39.421875 68.109375 
Q 45.21875 64.359375 48.21875 57.390625 
Q 51.21875 50.4375 51.21875 37.25 
Q 51.21875 23.53125 48.234375 15.40625 
Q 45.265625 7.28125 39.375 3.03125 
Q 33.5 -1.21875 25.59375 -1.21875 
Q 17.1875 -1.21875 11.859375 3.4375 
Q 6.546875 8.109375 5.46875 16.546875 
z
M 41.453125 48.140625 
Q 41.453125 55.71875 37.421875 60.15625 
Q 33.40625 64.59375 27.734375 64.59375 
Q 21.875 64.59375 17.53125 59.8125 
Q 13.1875 55.03125 13.1875 47.40625 
Q 13.1875 40.578125 17.3125 36.296875 
Q 21.4375 32.03125 27.484375 32.03125 
Q 33.59375 32.03125 37.515625 36.296875 
Q 41.453125 40.578125 41.453125 48.140625 
z
" id="ArialMT-57"/>
       </defs>
       <use xlink:href="#ArialMT-48"/>
       <use x="55.615234" xlink:href="#ArialMT-46"/>
       <use x="83.398438" xlink:href="#ArialMT-57"/>
      </g>
     </g>
    </g>
    <g id="ytick_6">
     <g id="text_20">
      <!-- 1.0 -->
      <g style="fill:#262626;" transform="translate(30.6 38.138906)scale(0.1 -0.1)">
       <use xlink:href="#ArialMT-49"/>
       <use x="55.615234" xlink:href="#ArialMT-46"/>
       <use x="83.398438" xlink:href="#ArialMT-48"/>
      </g>
     </g>
    </g>
    <g id="text_21">
     <!-- MEAN -->
     <g style="fill:#262626;" transform="translate(25.01 154.836875)rotate(-90)scale(0.08 -0.08)">
      <defs>
       <path d="M 7.421875 0 
L 7.421875 71.578125 
L 21.6875 71.578125 
L 38.625 20.90625 
Q 40.96875 13.8125 42.046875 10.296875 
Q 43.265625 14.203125 45.84375 21.78125 
L 62.984375 71.578125 
L 75.734375 71.578125 
L 75.734375 0 
L 66.609375 0 
L 66.609375 59.90625 
L 45.796875 0 
L 37.25 0 
L 16.546875 60.9375 
L 16.546875 0 
z
" id="ArialMT-77"/>
       <path d="M -0.140625 0 
L 27.34375 71.578125 
L 37.546875 71.578125 
L 66.84375 0 
L 56.0625 0 
L 47.703125 21.6875 
L 17.78125 21.6875 
L 9.90625 0 
z
M 20.515625 29.390625 
L 44.78125 29.390625 
L 37.3125 49.21875 
Q 33.890625 58.25 32.234375 64.0625 
Q 30.859375 57.171875 28.375 50.390625 
z
" id="ArialMT-65"/>
       <path d="M 7.625 0 
L 7.625 71.578125 
L 17.328125 71.578125 
L 54.9375 15.375 
L 54.9375 71.578125 
L 64.015625 71.578125 
L 64.015625 0 
L 54.296875 0 
L 16.703125 56.25 
L 16.703125 0 
z
" id="ArialMT-78"/>
      </defs>
      <use xlink:href="#ArialMT-77"/>
      <use x="83.300781" xlink:href="#ArialMT-69"/>
      <use x="150" xlink:href="#ArialMT-65"/>
      <use x="216.699219" xlink:href="#ArialMT-78"/>
     </g>
    </g>
   </g>
   <g id="PolyCollection_1">
    <defs>
     <path d="M 69.218182 -152.565235 
L 69.218182 -112.190976 
L 94.581818 -121.932288 
L 119.945455 -128.890368 
L 145.309091 -144.180749 
L 170.672727 -149.0688 
L 196.036364 -161.593344 
L 221.4 -167.855616 
L 246.763636 -154.635264 
L 272.127273 -134.456832 
L 297.490909 -131.6736 
L 322.854545 -126.802944 
L 348.218182 -108.711936 
L 373.581818 -87.837696 
L 373.581818 -135.170035 
L 373.581818 -135.170035 
L 348.218182 -146.285568 
L 322.854545 -168.551424 
L 297.490909 -167.855616 
L 272.127273 -176.205312 
L 246.763636 -196.383744 
L 221.4 -207.516672 
L 196.036364 -200.558592 
L 170.672727 -185.946624 
L 145.309091 -175.526899 
L 119.945455 -172.726272 
L 94.581818 -153.243648 
L 69.218182 -152.565235 
z
" id="me9987f76ae" style="stroke:#1a1a1a;stroke-opacity:0.2;"/>
    </defs>
    <g clip-path="url(#p0ae1cffdd4)">
     <use style="fill:#1a1a1a;fill-opacity:0.2;stroke:#1a1a1a;stroke-opacity:0.2;" x="0" xlink:href="#me9987f76ae" y="288"/>
    </g>
   </g>
   <g id="PolyCollection_2">
    <defs>
     <path d="M 69.218182 -217.275379 
L 69.218182 -174.117888 
L 94.581818 -181.754381 
L 119.945455 -195.670541 
L 145.309091 -179.684352 
L 170.672727 -188.712461 
L 196.036364 -193.600512 
L 221.4 -197.062157 
L 246.763636 -185.250816 
L 272.127273 -183.145997 
L 297.490909 -181.771776 
L 322.854545 -188.729856 
L 348.218182 -168.551424 
L 373.581818 -185.929229 
L 373.581818 -215.866368 
L 373.581818 -215.866368 
L 348.218182 -208.908288 
L 322.854545 -216.562176 
L 297.490909 -225.625075 
L 272.127273 -226.999296 
L 246.763636 -224.911872 
L 221.4 -232.56576 
L 196.036364 -230.478336 
L 170.672727 -227.695104 
L 145.309091 -226.999296 
L 119.945455 -217.953792 
L 94.581818 -216.562176 
L 69.218182 -217.275379 
z
" id="m47cab65cd6" style="stroke:#1a1a1a;stroke-opacity:0.2;"/>
    </defs>
    <g clip-path="url(#p0ae1cffdd4)">
     <use style="fill:#1a1a1a;fill-opacity:0.2;stroke:#1a1a1a;stroke-opacity:0.2;" x="0" xlink:href="#m47cab65cd6" y="288"/>
    </g>
   </g>
   <g id="PolyCollection_3">
    <defs>
     <path d="M 69.218182 -64.180224 
L 69.218182 -37.043712 
L 94.581818 -20.326925 
L 119.945455 -39.826944 
L 145.309091 -44.6976 
L 170.672727 -39.131136 
L 196.036364 -53.725709 
L 221.4 -58.61376 
L 246.763636 -48.872448 
L 272.127273 -52.334093 
L 297.490909 -36.347904 
L 322.854545 -32.868864 
L 348.218182 -34.26048 
L 373.581818 -14.777856 
L 373.581818 -57.239539 
L 373.581818 -57.239539 
L 348.218182 -82.96704 
L 322.854545 -70.442496 
L 297.490909 -81.592819 
L 272.127273 -87.141888 
L 246.763636 -98.970624 
L 221.4 -96.900595 
L 196.036364 -109.425139 
L 170.672727 -76.704768 
L 145.309091 -79.488 
L 119.945455 -78.792192 
L 94.581818 -74.617344 
L 69.218182 -64.180224 
z
" id="m1ca4dbd6ff" style="stroke:#a9a9a9;stroke-opacity:0.2;"/>
    </defs>
    <g clip-path="url(#p0ae1cffdd4)">
     <use style="fill:#a9a9a9;fill-opacity:0.2;stroke:#a9a9a9;stroke-opacity:0.2;" x="0" xlink:href="#m1ca4dbd6ff" y="288"/>
    </g>
   </g>
   <g id="PolyCollection_4">
    <defs>
     <path d="M 69.218182 -188.034048 
L 69.218182 -138.63168 
L 94.581818 -127.498752 
L 119.945455 -142.11072 
L 145.309091 -145.58976 
L 170.672727 -143.502336 
L 196.036364 -167.159808 
L 221.4 -174.100493 
L 246.763636 -174.117888 
L 272.127273 -173.42208 
L 297.490909 -144.198144 
L 322.854545 -164.359181 
L 348.218182 -139.327488 
L 373.581818 -120.540672 
L 373.581818 -174.813696 
L 373.581818 -174.813696 
L 348.218182 -182.467584 
L 322.854545 -204.73344 
L 297.490909 -194.992128 
L 272.127273 -204.037632 
L 246.763636 -208.21248 
L 221.4 -210.299904 
L 196.036364 -201.950208 
L 170.672727 -196.383744 
L 145.309091 -190.121472 
L 119.945455 -187.33824 
L 94.581818 -174.117888 
L 69.218182 -188.034048 
z
" id="m8cac36dbc8" style="stroke:#a9a9a9;stroke-opacity:0.2;"/>
    </defs>
    <g clip-path="url(#p0ae1cffdd4)">
     <use style="fill:#a9a9a9;fill-opacity:0.2;stroke:#a9a9a9;stroke-opacity:0.2;" x="0" xlink:href="#m8cac36dbc8" y="288"/>
    </g>
   </g>
   <g id="line2d_1">
    <path clip-path="url(#p0ae1cffdd4)" d="M 69.218182 155.630592 
L 94.581818 150.759936 
L 119.945455 137.539584 
L 145.309091 127.798272 
L 170.672727 120.144384 
L 196.036364 105.532416 
L 221.4 99.270144 
L 246.763636 111.09888 
L 272.127273 132.668928 
L 297.490909 138.235392 
L 322.854545 139.627008 
L 348.218182 160.501248 
L 373.581818 176.504832 
" style="fill:none;stroke:#1a1a1a;stroke-linecap:round;stroke-width:1.5;"/>
    <defs>
     <path d="M 0 3 
C 0.795609 3 1.55874 2.683901 2.12132 2.12132 
C 2.683901 1.55874 3 0.795609 3 0 
C 3 -0.795609 2.683901 -1.55874 2.12132 -2.12132 
C 1.55874 -2.683901 0.795609 -3 0 -3 
C -0.795609 -3 -1.55874 -2.683901 -2.12132 -2.12132 
C -2.683901 -1.55874 -3 -0.795609 -3 0 
C -3 0.795609 -2.683901 1.55874 -2.12132 2.12132 
C -1.55874 2.683901 -0.795609 3 0 3 
z
" id="mc3a9132715" style="stroke:#ffffff;stroke-width:0.75;"/>
    </defs>
    <g clip-path="url(#p0ae1cffdd4)">
     <use style="fill:#1a1a1a;stroke:#ffffff;stroke-width:0.75;" x="69.218182" xlink:href="#mc3a9132715" y="155.630592"/>
     <use style="fill:#1a1a1a;stroke:#ffffff;stroke-width:0.75;" x="94.581818" xlink:href="#mc3a9132715" y="150.759936"/>
     <use style="fill:#1a1a1a;stroke:#ffffff;stroke-width:0.75;" x="119.945455" xlink:href="#mc3a9132715" y="137.539584"/>
     <use style="fill:#1a1a1a;stroke:#ffffff;stroke-width:0.75;" x="145.309091" xlink:href="#mc3a9132715" y="127.798272"/>
     <use style="fill:#1a1a1a;stroke:#ffffff;stroke-width:0.75;" x="170.672727" xlink:href="#mc3a9132715" y="120.144384"/>
     <use style="fill:#1a1a1a;stroke:#ffffff;stroke-width:0.75;" x="196.036364" xlink:href="#mc3a9132715" y="105.532416"/>
     <use style="fill:#1a1a1a;stroke:#ffffff;stroke-width:0.75;" x="221.4" xlink:href="#mc3a9132715" y="99.270144"/>
     <use style="fill:#1a1a1a;stroke:#ffffff;stroke-width:0.75;" x="246.763636" xlink:href="#mc3a9132715" y="111.09888"/>
     <use style="fill:#1a1a1a;stroke:#ffffff;stroke-width:0.75;" x="272.127273" xlink:href="#mc3a9132715" y="132.668928"/>
     <use style="fill:#1a1a1a;stroke:#ffffff;stroke-width:0.75;" x="297.490909" xlink:href="#mc3a9132715" y="138.235392"/>
     <use style="fill:#1a1a1a;stroke:#ffffff;stroke-width:0.75;" x="322.854545" xlink:href="#mc3a9132715" y="139.627008"/>
     <use style="fill:#1a1a1a;stroke:#ffffff;stroke-width:0.75;" x="348.218182" xlink:href="#mc3a9132715" y="160.501248"/>
     <use style="fill:#1a1a1a;stroke:#ffffff;stroke-width:0.75;" x="373.581818" xlink:href="#mc3a9132715" y="176.504832"/>
    </g>
   </g>
   <g id="line2d_2">
    <path clip-path="url(#p0ae1cffdd4)" d="M 69.218182 90.22464 
L 94.581818 88.833024 
L 119.945455 81.179136 
L 145.309091 80.483328 
L 170.672727 77.004288 
L 196.036364 72.82944 
L 221.4 70.046208 
L 246.763636 80.483328 
L 272.127273 81.179136 
L 297.490909 81.179136 
L 322.854545 84.658176 
L 348.218182 97.18272 
L 373.581818 85.353984 
" style="fill:none;stroke:#1a1a1a;stroke-dasharray:6,2.25;stroke-dashoffset:0;stroke-width:1.5;"/>
    <g clip-path="url(#p0ae1cffdd4)">
     <use style="fill:#1a1a1a;stroke:#ffffff;stroke-width:0.75;" x="69.218182" xlink:href="#mc3a9132715" y="90.22464"/>
     <use style="fill:#1a1a1a;stroke:#ffffff;stroke-width:0.75;" x="94.581818" xlink:href="#mc3a9132715" y="88.833024"/>
     <use style="fill:#1a1a1a;stroke:#ffffff;stroke-width:0.75;" x="119.945455" xlink:href="#mc3a9132715" y="81.179136"/>
     <use style="fill:#1a1a1a;stroke:#ffffff;stroke-width:0.75;" x="145.309091" xlink:href="#mc3a9132715" y="80.483328"/>
     <use style="fill:#1a1a1a;stroke:#ffffff;stroke-width:0.75;" x="170.672727" xlink:href="#mc3a9132715" y="77.004288"/>
     <use style="fill:#1a1a1a;stroke:#ffffff;stroke-width:0.75;" x="196.036364" xlink:href="#mc3a9132715" y="72.82944"/>
     <use style="fill:#1a1a1a;stroke:#ffffff;stroke-width:0.75;" x="221.4" xlink:href="#mc3a9132715" y="70.046208"/>
     <use style="fill:#1a1a1a;stroke:#ffffff;stroke-width:0.75;" x="246.763636" xlink:href="#mc3a9132715" y="80.483328"/>
     <use style="fill:#1a1a1a;stroke:#ffffff;stroke-width:0.75;" x="272.127273" xlink:href="#mc3a9132715" y="81.179136"/>
     <use style="fill:#1a1a1a;stroke:#ffffff;stroke-width:0.75;" x="297.490909" xlink:href="#mc3a9132715" y="81.179136"/>
     <use style="fill:#1a1a1a;stroke:#ffffff;stroke-width:0.75;" x="322.854545" xlink:href="#mc3a9132715" y="84.658176"/>
     <use style="fill:#1a1a1a;stroke:#ffffff;stroke-width:0.75;" x="348.218182" xlink:href="#mc3a9132715" y="97.18272"/>
     <use style="fill:#1a1a1a;stroke:#ffffff;stroke-width:0.75;" x="373.581818" xlink:href="#mc3a9132715" y="85.353984"/>
    </g>
   </g>
   <g id="line2d_3">
    <path clip-path="url(#p0ae1cffdd4)" d="M 69.218182 237.040128 
L 94.581818 240.519168 
L 119.945455 227.298816 
L 145.309091 225.211392 
L 170.672727 230.777856 
L 196.036364 206.424576 
L 221.4 210.599424 
L 246.763636 215.47008 
L 272.127273 218.94912 
L 297.490909 228.690432 
L 322.854545 236.34432 
L 348.218182 229.38624 
L 373.581818 253.043712 
" style="fill:none;stroke:#a9a9a9;stroke-linecap:round;stroke-width:1.5;"/>
    <defs>
     <path d="M 0 3 
C 0.795609 3 1.55874 2.683901 2.12132 2.12132 
C 2.683901 1.55874 3 0.795609 3 0 
C 3 -0.795609 2.683901 -1.55874 2.12132 -2.12132 
C 1.55874 -2.683901 0.795609 -3 0 -3 
C -0.795609 -3 -1.55874 -2.683901 -2.12132 -2.12132 
C -2.683901 -1.55874 -3 -0.795609 -3 0 
C -3 0.795609 -2.683901 1.55874 -2.12132 2.12132 
C -1.55874 2.683901 -0.795609 3 0 3 
z
" id="m78912e4d2a" style="stroke:#ffffff;stroke-width:0.75;"/>
    </defs>
    <g clip-path="url(#p0ae1cffdd4)">
     <use style="fill:#a9a9a9;stroke:#ffffff;stroke-width:0.75;" x="69.218182" xlink:href="#m78912e4d2a" y="237.040128"/>
     <use style="fill:#a9a9a9;stroke:#ffffff;stroke-width:0.75;" x="94.581818" xlink:href="#m78912e4d2a" y="240.519168"/>
     <use style="fill:#a9a9a9;stroke:#ffffff;stroke-width:0.75;" x="119.945455" xlink:href="#m78912e4d2a" y="227.298816"/>
     <use style="fill:#a9a9a9;stroke:#ffffff;stroke-width:0.75;" x="145.309091" xlink:href="#m78912e4d2a" y="225.211392"/>
     <use style="fill:#a9a9a9;stroke:#ffffff;stroke-width:0.75;" x="170.672727" xlink:href="#m78912e4d2a" y="230.777856"/>
     <use style="fill:#a9a9a9;stroke:#ffffff;stroke-width:0.75;" x="196.036364" xlink:href="#m78912e4d2a" y="206.424576"/>
     <use style="fill:#a9a9a9;stroke:#ffffff;stroke-width:0.75;" x="221.4" xlink:href="#m78912e4d2a" y="210.599424"/>
     <use style="fill:#a9a9a9;stroke:#ffffff;stroke-width:0.75;" x="246.763636" xlink:href="#m78912e4d2a" y="215.47008"/>
     <use style="fill:#a9a9a9;stroke:#ffffff;stroke-width:0.75;" x="272.127273" xlink:href="#m78912e4d2a" y="218.94912"/>
     <use style="fill:#a9a9a9;stroke:#ffffff;stroke-width:0.75;" x="297.490909" xlink:href="#m78912e4d2a" y="228.690432"/>
     <use style="fill:#a9a9a9;stroke:#ffffff;stroke-width:0.75;" x="322.854545" xlink:href="#m78912e4d2a" y="236.34432"/>
     <use style="fill:#a9a9a9;stroke:#ffffff;stroke-width:0.75;" x="348.218182" xlink:href="#m78912e4d2a" y="229.38624"/>
     <use style="fill:#a9a9a9;stroke:#ffffff;stroke-width:0.75;" x="373.581818" xlink:href="#m78912e4d2a" y="253.043712"/>
    </g>
   </g>
   <g id="line2d_4">
    <path clip-path="url(#p0ae1cffdd4)" d="M 69.218182 122.927616 
L 94.581818 135.45216 
L 119.945455 121.536 
L 145.309091 119.448576 
L 170.672727 116.665344 
L 196.036364 102.053376 
L 221.4 93.70368 
L 246.763636 97.18272 
L 272.127273 99.270144 
L 297.490909 118.05696 
L 322.854545 102.053376 
L 348.218182 127.102464 
L 373.581818 138.9312 
" style="fill:none;stroke:#a9a9a9;stroke-dasharray:6,2.25;stroke-dashoffset:0;stroke-width:1.5;"/>
    <g clip-path="url(#p0ae1cffdd4)">
     <use style="fill:#a9a9a9;stroke:#ffffff;stroke-width:0.75;" x="69.218182" xlink:href="#m78912e4d2a" y="122.927616"/>
     <use style="fill:#a9a9a9;stroke:#ffffff;stroke-width:0.75;" x="94.581818" xlink:href="#m78912e4d2a" y="135.45216"/>
     <use style="fill:#a9a9a9;stroke:#ffffff;stroke-width:0.75;" x="119.945455" xlink:href="#m78912e4d2a" y="121.536"/>
     <use style="fill:#a9a9a9;stroke:#ffffff;stroke-width:0.75;" x="145.309091" xlink:href="#m78912e4d2a" y="119.448576"/>
     <use style="fill:#a9a9a9;stroke:#ffffff;stroke-width:0.75;" x="170.672727" xlink:href="#m78912e4d2a" y="116.665344"/>
     <use style="fill:#a9a9a9;stroke:#ffffff;stroke-width:0.75;" x="196.036364" xlink:href="#m78912e4d2a" y="102.053376"/>
     <use style="fill:#a9a9a9;stroke:#ffffff;stroke-width:0.75;" x="221.4" xlink:href="#m78912e4d2a" y="93.70368"/>
     <use style="fill:#a9a9a9;stroke:#ffffff;stroke-width:0.75;" x="246.763636" xlink:href="#m78912e4d2a" y="97.18272"/>
     <use style="fill:#a9a9a9;stroke:#ffffff;stroke-width:0.75;" x="272.127273" xlink:href="#m78912e4d2a" y="99.270144"/>
     <use style="fill:#a9a9a9;stroke:#ffffff;stroke-width:0.75;" x="297.490909" xlink:href="#m78912e4d2a" y="118.05696"/>
     <use style="fill:#a9a9a9;stroke:#ffffff;stroke-width:0.75;" x="322.854545" xlink:href="#m78912e4d2a" y="102.053376"/>
     <use style="fill:#a9a9a9;stroke:#ffffff;stroke-width:0.75;" x="348.218182" xlink:href="#m78912e4d2a" y="127.102464"/>
     <use style="fill:#a9a9a9;stroke:#ffffff;stroke-width:0.75;" x="373.581818" xlink:href="#m78912e4d2a" y="138.9312"/>
    </g>
   </g>
   <g id="line2d_5"/>
   <g id="line2d_6"/>
   <g id="line2d_7"/>
   <g id="line2d_8"/>
   <g id="patch_3">
    <path d="M 54 252 
L 54 34.56 
" style="fill:none;stroke:#262626;stroke-linecap:square;stroke-linejoin:miter;stroke-width:1.25;"/>
   </g>
   <g id="patch_4">
    <path d="M 54 252 
L 388.8 252 
" style="fill:none;stroke:#262626;stroke-linecap:square;stroke-linejoin:miter;stroke-width:1.25;"/>
   </g>
  </g>
 </g>
 <defs>
  <clipPath id="p0ae1cffdd4">
   <rect height="217.44" width="334.8" x="54" y="34.56"/>
  </clipPath>
 </defs>
</svg>
